Coordinates
version=1
nRows=22
nColumns=24
inDegrees=yes

Units are S.I. units (second, meters, Newtons, ...)
Angles are in degrees.

endheader
time	pelvis_tilt	pelvis_list	pelvis_rotation	pelvis_tx	pelvis_ty	pelvis_tz	hip_flexion_r	hip_adduction_r	hip_rotation_r	knee_angle_r	ankle_angle_r	subtalar_angle_r	mtp_angle_r	hip_flexion_l	hip_adduction_l	hip_rotation_l	knee_angle_l	ankle_angle_l	subtalar_angle_l	mtp_angle_l	lumbar_extension	lumbar_bending	lumbar_rotation
      4.22000000	    -17.97478862	     -7.00929613	      0.06048347	     -1.61826158	     -0.02308218	     -0.33733186	     26.60526901	      9.75330083	     -7.21394230	    -23.57355704	      8.31293863	    -15.88994163	     -3.10602624	     31.78995816	    -10.61743433	     -5.54570242	    -64.70058003	     -8.08814686	     -9.03315176	     21.52872620	     22.22014091	      5.60815503	    -17.31891420
      4.22500000	    -17.97386007	     -6.62879991	     -0.15972443	     -1.61193477	     -0.02192410	     -0.33688759	     25.77896672	      9.56155802	     -6.75248183	    -22.95399784	      8.38391802	    -15.79257307	     -3.36133050	     32.48425829	    -10.24850359	     -5.86471631	    -64.36585489	     -7.46063026	     -9.17160471	     21.63620431	     22.10821440	      5.34321497	    -16.80462642
      4.23000000	    -17.97818909	     -6.27936966	     -0.31918119	     -1.60561560	     -0.02086573	     -0.33649889	     24.95260706	      9.36584934	     -6.34681206	    -22.30946563	      8.48284882	    -15.70376030	     -3.61566453	     33.20579146	     -9.89502688	     -6.13750344	    -63.99545082	     -6.90234239	     -9.34413343	     21.65226132	     22.00881276	      5.07766550	    -16.40349910
      4.23500000	    -17.97827460	     -5.93610575	     -0.48770769	     -1.59932030	     -0.01987118	     -0.33611710	     24.12551507	      9.16680619	     -5.94675546	    -21.66496030	      8.58496155	    -15.58442213	     -3.88203733	     33.90881491	     -9.57080999	     -6.44208288	    -63.56503693	     -6.38112244	     -9.52977094	     21.58643217	     21.90239195	      4.82293702	    -15.99119950
      4.24000000	    -17.98495678	     -5.59992181	     -0.64347827	     -1.59304815	     -0.01895245	     -0.33575018	     23.31030230	      8.95731889	     -5.58095747	    -21.01765690	      8.68317866	    -15.45512132	     -4.12995614	     34.61077090	     -9.25859715	     -6.74303676	    -63.07611900	     -5.89872979	     -9.71213691	     21.45319271	     21.80214939	      4.56396684	    -15.60627081
      4.24500000	    -17.98241404	     -5.26831561	     -0.80648119	     -1.58679663	     -0.01809564	     -0.33538724	     22.48911845	      8.74417306	     -5.21833861	    -20.37070088	      8.78594215	    -15.30637438	     -4.38153677	     35.28557053	     -8.97315583	     -7.07402516	    -62.52617540	     -5.45288015	     -9.89167618	     21.25411467	     21.68943434	      4.31246816	    -15.21395992
      4.25000000	    -17.98166328	     -4.94738937	     -0.96058900	     -1.58056621	     -0.01731653	     -0.33504303	     21.67405465	      8.52683812	     -4.88333142	    -19.72194219	      8.88670697	    -15.14546577	     -4.62074521	     35.95026731	     -8.70692397	     -7.40704769	    -61.91728504	     -5.03618954	    -10.04657030	     21.01578451	     21.57745891	      4.06412680	    -14.84265291
      4.25500000	    -17.97702431	     -4.63568286	     -1.11430155	     -1.57435506	     -0.01660749	     -0.33471759	     20.86057960	      8.30692617	     -4.56649290	    -19.07585350	      8.98595512	    -14.96857164	     -4.84925901	     36.59379355	     -8.46409522	     -7.75516047	    -61.24729358	     -4.64522947	    -10.17338654	     20.74831859	     21.46021918	      3.82471679	    -14.47608645
      4.26000000	    -17.96818050	     -4.33618845	     -1.26529617	     -1.56817399	     -0.01597106	     -0.33440175	     20.04917311	      8.08816123	     -4.27068648	    -18.43204668	      9.08611030	    -14.77868406	     -5.06635591	     37.21659333	     -8.24599239	     -8.11216287	    -60.51619792	     -4.27493701	    -10.26119518	     20.46332099	     21.33642586	      3.59140145	    -14.11948293
      4.26500000	    -17.95851075	     -4.05016469	     -1.41081924	     -1.56201212	     -0.01541338	     -0.33410908	     19.24351493	      7.87045030	     -4.00119543	    -17.79241749	      9.18326156	    -14.57833646	     -5.26318986	     37.82179834	     -8.04993157	     -8.47387516	    -59.72489831	     -3.92262864	    -10.30212770	     20.17941992	     21.21081370	      3.36736907	    -13.77725183
      4.27000000	    -17.95111255	     -3.77966433	     -1.54891681	     -1.55587628	     -0.01493988	     -0.33384335	     18.44824877	      7.65584179	     -3.76193663	    -17.15812396	      9.27625430	    -14.37053624	     -5.42989605	     38.41334120	     -7.87544854	     -8.83694477	    -58.87382980	     -3.58737718	    -10.29342095	     19.91484886	     21.08575760	      3.15474796	    -13.45286413
      4.27500000	    -17.89714732	     -3.53782022	     -1.69660073	     -1.54976135	     -0.01450811	     -0.33358724	     17.60162381	      7.46505846	     -3.50388139	    -16.52090884	      9.38350383	    -14.12208086	     -5.63387175	     38.93649396	     -7.75003528	     -9.22676757	    -57.97566208	     -3.26341953	    -10.23785810	     19.55224466	     20.90680954	      2.97196283	    -13.14532277
      4.28000000	    -17.92697377	     -3.28733271	     -1.81458895	     -1.54368173	     -0.01423406	     -0.33335687	     16.87509509	      7.24755017	     -3.35734337	    -15.91795492	      9.46048584	    -13.92044725	     -5.72518325	     39.52945315	     -7.59692524	     -9.57513834	    -56.99485526	     -2.94758512	    -10.10829847	     19.37338481	     20.81866288	      2.76171147	    -12.84822463
      4.28500000	    -17.88641692	     -3.06057853	     -1.95512039	     -1.53760576	     -0.01398184	     -0.33313558	     16.07068187	      7.05139327	     -3.16137886	    -15.31595129	      9.56749657	    -13.66406680	     -5.80147598	     40.01520987	     -7.49448385	     -9.97353260	    -55.95485504	     -2.63525595	     -9.96786230	     19.15201875	     20.65267316	      2.58471841	    -12.55893159
      4.29000000	    -17.95978466	     -2.86500743	     -2.01685273	     -1.53155772	     -0.01394507	     -0.33298136	     15.39925731	      6.86569220	     -3.06290653	    -14.72080003	      9.65081077	    -13.47427140	     -5.83289488	     40.63258565	     -7.36907747	    -10.26547730	    -54.86671530	     -2.37431820	     -9.75306081	     19.05977055	     20.61316519	      2.39545352	    -12.38552931
      4.29500000	    -17.88162243	     -2.63185491	     -2.19430727	     -1.52552003	     -0.01375798	     -0.33274849	     14.59224536	      6.65228784	     -2.93407644	    -14.17172372	      9.72127719	    -13.15937201	     -5.85224143	     41.00284083	     -7.30376996	    -10.74217069	    -53.67552525	     -2.09054075	     -9.47541122	     18.89598765	     20.39764144	      2.22661809	    -12.02146819
      4.30000000	    -17.92633741	     -2.45288884	     -2.25670151	     -1.51949036	     -0.01386123	     -0.33261330	     13.90921010	      6.47308818	     -2.86146555	    -13.60756282	      9.83255520	    -12.93956028	     -5.86119728	     41.53110656	     -7.20981122	    -11.07873163	    -52.46210410	     -1.84481342	     -9.17480004	     18.79937151	     20.32429626	      2.05018645	    -11.85770014
      4.30500000	    -17.85106306	     -2.26189408	     -2.41250914	     -1.51347168	     -0.01385738	     -0.33243722	     13.13595553	      6.28399037	     -2.78420695	    -13.11416375	      9.92111249	    -12.59162599	     -5.84855070	     41.85351865	     -7.17286293	    -11.54992374	    -51.14765872	     -1.55317355	     -8.83023255	     18.65352165	     20.11329384	      1.90638634	    -11.57198109
      4.31000000	    -17.84230971	     -2.08260210	     -2.50412713	     -1.50745899	     -0.01401804	     -0.33230856	     12.43870199	      6.09350378	     -2.74507250	    -12.62684708	     10.02577764	    -12.28456358	     -5.83409617	     42.24493545	     -7.10644980	    -11.96233689	    -49.79112203	     -1.31962333	     -8.41092374	     18.53502478	     19.97626539	      1.74228135	    -11.36208871
      4.31500000	    -17.84510468	     -1.92159179	     -2.60054020	     -1.50145877	     -0.01428558	     -0.33218897	     11.77261208	      5.91969606	     -2.72546259	    -12.17237680	     10.14691800	    -11.96999366	     -5.81398840	     42.62026031	     -7.06046844	    -12.39142509	    -48.37727395	     -1.07533497	     -7.97938759	     18.43298844	     19.84772406	      1.59564937	    -11.17353788
      4.32000000	    -17.92537974	     -1.77902515	     -2.65894230	     -1.49549884	     -0.01468805	     -0.33216316	     11.21807329	      5.75557390	     -2.71624041	    -11.76697886	     10.22497661	    -11.71805445	     -5.80634709	     43.06175537	     -6.98909346	    -12.75400523	    -46.89729458	     -0.88180931	     -7.50923047	     18.37772737	     19.79896757	      1.45623071	    -11.08476448
      4.32500000	    -17.88044326	     -1.60722875	     -2.78950921	     -1.48948222	     -0.01504119	     -0.33201025	     10.54792325	      5.56454137	     -2.71369232	    -11.40256039	     10.39819614	    -11.31054074	     -5.76872101	     43.30628273	     -6.96713973	    -13.28548059	    -45.35796705	     -0.63654550	     -6.95213710	     18.30368779	     19.61990621	      1.30785695	    -10.81879552
